<?xml version="1.0" standalone="no"?>
<!DOCTYPE svg PUBLIC "-//W3C//DTD SVG 20010904//EN"
 "http://www.w3.org/TR/2001/REC-SVG-20010904/DTD/svg10.dtd">
<svg version="1.0" xmlns="http://www.w3.org/2000/svg"
 width="512.000000pt" height="512.000000pt" viewBox="0 0 512.000000 512.000000"
 preserveAspectRatio="xMidYMid meet">
<metadata>
Created by potrace 1.11, written by Peter Selinger 2001-2013
</metadata>
<g transform="translate(0.000000,512.000000) scale(0.100000,-0.100000)"
fill="#000000" stroke="none">
<path d="M1320 5113 c-585 -65 -1067 -452 -1243 -998 -76 -237 -72 -141 -72
-1555 0 -1414 -4 -1318 72 -1555 142 -442 486 -786 928 -928 237 -76 141 -72
1555 -72 1414 0 1318 -4 1555 72 442 142 786 486 928 928 76 237 72 141 72
1555 0 1414 4 1318 -72 1555 -120 373 -382 675 -738 852 -93 47 -236 96 -367
126 -92 21 -105 21 -1338 23 -685 0 -1261 -1 -1280 -3z m2159 -665 c193 -60
343 -207 407 -400 27 -80 28 -92 32 -341 4 -263 -4 -380 -35 -487 -102 -359
-406 -606 -813 -660 -47 -7 -86 -13 -88 -15 -2 -1 228 -202 510 -445 282 -244
522 -451 533 -461 19 -19 10 -19 -380 -19 l-400 1 -535 464 -535 464 -187 1
-188 0 0 260 0 260 598 0 c506 0 607 2 657 15 152 39 253 116 308 233 l32 67
3 244 c4 263 -1 295 -45 312 -14 5 -392 9 -894 9 l-869 0 0 -1165 0 -1165
-255 0 -255 0 0 1319 c0 1138 2 1324 15 1360 26 76 77 124 159 153 48 17 118
18 1111 15 950 -3 1066 -5 1114 -19z m-2249 -2986 c0 -16 91 -507 95 -510 2
-2 14 13 28 35 13 21 65 104 116 186 94 149 110 167 154 167 33 0 50 -22 173
-219 83 -133 109 -169 114 -155 4 11 27 128 51 262 l43 242 73 0 c61 0 73 -3
73 -17 0 -46 -133 -751 -145 -770 -8 -12 -24 -24 -35 -28 -50 -16 -71 8 -210
236 -73 121 -137 222 -141 225 -4 2 -69 -98 -144 -222 -146 -240 -161 -256
-216 -234 -15 7 -32 24 -38 38 -9 23 -141 735 -141 762 0 6 32 10 75 10 41 0
75 -4 75 -8z m1758 -6 c38 -20 77 -65 91 -105 16 -49 14 -179 -5 -242 -26 -90
-139 -179 -227 -179 -10 0 -17 -4 -15 -9 2 -4 68 -64 147 -132 l143 -124 -111
-3 -112 -3 -155 136 -155 135 -55 0 -55 0 3 73 3 72 190 5 c128 3 197 9 212
18 39 22 54 65 51 145 l-3 72 -252 3 -253 2 0 -330 0 -330 -75 0 -75 0 0 382
c0 378 0 382 22 405 l21 23 319 0 c255 0 324 -3 346 -14z m885 0 c43 -18 82
-62 97 -110 16 -51 7 -142 -21 -201 l-22 -46 41 -42 c50 -51 72 -109 72 -194
0 -74 -16 -117 -56 -155 -47 -43 -87 -48 -402 -48 l-294 0 -29 30 -30 29 3
356 3 357 24 19 c22 18 42 19 302 19 215 0 287 -3 312 -14z"/>
<path d="M3380 1065 l0 -255 253 2 252 3 3 53 c3 49 0 56 -31 87 l-35 35 -191
0 -191 0 0 75 0 75 140 0 c149 0 188 9 225 49 14 16 19 37 20 74 l0 52 -222 3
-223 2 0 -255z"/>
</g>
</svg>
